<mxfile host="www.draw.io" modified="2019-12-10T17:18:49.126Z" agent="Mozilla/5.0 (Macintosh; Intel Mac OS X 10_15_1) AppleWebKit/537.36 (KHTML, like Gecko) Chrome/78.0.3904.108 Safari/537.36" etag="YjEbajWta1rsaU3Mshaa" version="12.3.9" type="github" pages="4">
  <diagram id="wNm0hHR1j8DfDaz-g-fx" name="01 - mockup">
    <mxGraphModel dx="996" dy="478" grid="1" gridSize="10" guides="1" tooltips="1" connect="1" arrows="1" fold="1" page="1" pageScale="1" pageWidth="1920" pageHeight="1200" math="0" shadow="0">
      <root>
        <mxCell id="0"/>
        <mxCell id="1" parent="0"/>
        <mxCell id="QejyDPV3MomeFhRJW_PR-1" value="" style="strokeWidth=1;shadow=0;dashed=0;align=center;html=1;shape=mxgraph.mockup.containers.browserWindow;rSize=0;strokeColor=#666666;strokeColor2=#008cff;strokeColor3=#c4c4c4;mainText=,;recursiveResize=0;" vertex="1" parent="1">
          <mxGeometry x="320" y="120" width="570" height="430" as="geometry"/>
        </mxCell>
        <mxCell id="QejyDPV3MomeFhRJW_PR-2" value="Page 1" style="strokeWidth=1;shadow=0;dashed=0;align=center;html=1;shape=mxgraph.mockup.containers.anchor;fontSize=17;fontColor=#666666;align=left;" vertex="1" parent="QejyDPV3MomeFhRJW_PR-1">
          <mxGeometry x="60" y="12" width="110" height="26" as="geometry"/>
        </mxCell>
        <mxCell id="QejyDPV3MomeFhRJW_PR-3" value="https://www.draw.io" style="strokeWidth=1;shadow=0;dashed=0;align=center;html=1;shape=mxgraph.mockup.containers.anchor;rSize=0;fontSize=17;fontColor=#666666;align=left;" vertex="1" parent="QejyDPV3MomeFhRJW_PR-1">
          <mxGeometry x="130" y="60" width="250" height="26" as="geometry"/>
        </mxCell>
        <mxCell id="QejyDPV3MomeFhRJW_PR-4" value="" style="rounded=0;whiteSpace=wrap;html=1;" vertex="1" parent="QejyDPV3MomeFhRJW_PR-1">
          <mxGeometry x="30" y="130" width="130" height="140" as="geometry"/>
        </mxCell>
        <mxCell id="QejyDPV3MomeFhRJW_PR-5" value="" style="rounded=0;whiteSpace=wrap;html=1;" vertex="1" parent="QejyDPV3MomeFhRJW_PR-1">
          <mxGeometry x="30" y="270" width="130" height="100" as="geometry"/>
        </mxCell>
        <mxCell id="QejyDPV3MomeFhRJW_PR-6" value="" style="shape=image;html=1;verticalAlign=top;verticalLabelPosition=bottom;labelBackgroundColor=#ffffff;imageAspect=0;aspect=fixed;image=https://cdn4.iconfinder.com/data/icons/tree-22/72/30-128.png" vertex="1" parent="QejyDPV3MomeFhRJW_PR-1">
          <mxGeometry x="53" y="158" width="84" height="84" as="geometry"/>
        </mxCell>
        <mxCell id="QejyDPV3MomeFhRJW_PR-7" value="Neat Tree" style="text;html=1;strokeColor=none;fillColor=none;align=left;verticalAlign=middle;whiteSpace=wrap;rounded=0;fontStyle=1" vertex="1" parent="QejyDPV3MomeFhRJW_PR-1">
          <mxGeometry x="40" y="273" width="100" height="20" as="geometry"/>
        </mxCell>
        <mxCell id="QejyDPV3MomeFhRJW_PR-8" value="&lt;span style=&quot;font-weight: normal&quot;&gt;@nature&lt;/span&gt;" style="text;html=1;strokeColor=none;fillColor=none;align=left;verticalAlign=middle;whiteSpace=wrap;rounded=0;fontStyle=3" vertex="1" parent="QejyDPV3MomeFhRJW_PR-1">
          <mxGeometry x="40" y="288" width="100" height="20" as="geometry"/>
        </mxCell>
        <mxCell id="QejyDPV3MomeFhRJW_PR-9" value="Saw this awesome tree during my hike today" style="text;html=1;strokeColor=none;fillColor=none;align=left;verticalAlign=middle;whiteSpace=wrap;rounded=0;" vertex="1" parent="QejyDPV3MomeFhRJW_PR-1">
          <mxGeometry x="40" y="314" width="110" height="40" as="geometry"/>
        </mxCell>
        <mxCell id="QejyDPV3MomeFhRJW_PR-10" value="" style="rounded=0;whiteSpace=wrap;html=1;" vertex="1" parent="QejyDPV3MomeFhRJW_PR-1">
          <mxGeometry x="190" y="130" width="130" height="140" as="geometry"/>
        </mxCell>
        <mxCell id="QejyDPV3MomeFhRJW_PR-11" value="" style="rounded=0;whiteSpace=wrap;html=1;" vertex="1" parent="QejyDPV3MomeFhRJW_PR-1">
          <mxGeometry x="190" y="270" width="130" height="100" as="geometry"/>
        </mxCell>
        <mxCell id="QejyDPV3MomeFhRJW_PR-13" value="Snowy Mountain" style="text;html=1;strokeColor=none;fillColor=none;align=left;verticalAlign=middle;whiteSpace=wrap;rounded=0;fontStyle=1" vertex="1" parent="QejyDPV3MomeFhRJW_PR-1">
          <mxGeometry x="200" y="273" width="100" height="20" as="geometry"/>
        </mxCell>
        <mxCell id="QejyDPV3MomeFhRJW_PR-14" value="&lt;span style=&quot;font-weight: normal&quot;&gt;@hikingperson&lt;/span&gt;" style="text;html=1;strokeColor=none;fillColor=none;align=left;verticalAlign=middle;whiteSpace=wrap;rounded=0;fontStyle=3" vertex="1" parent="QejyDPV3MomeFhRJW_PR-1">
          <mxGeometry x="200" y="288" width="100" height="20" as="geometry"/>
        </mxCell>
        <mxCell id="QejyDPV3MomeFhRJW_PR-15" value="Beautiful view of some mountains I saw during my hike" style="text;html=1;strokeColor=none;fillColor=none;align=left;verticalAlign=middle;whiteSpace=wrap;rounded=0;" vertex="1" parent="QejyDPV3MomeFhRJW_PR-1">
          <mxGeometry x="200" y="314" width="110" height="40" as="geometry"/>
        </mxCell>
        <mxCell id="QejyDPV3MomeFhRJW_PR-16" value="" style="rounded=0;whiteSpace=wrap;html=1;" vertex="1" parent="QejyDPV3MomeFhRJW_PR-1">
          <mxGeometry x="350" y="130" width="130" height="140" as="geometry"/>
        </mxCell>
        <mxCell id="QejyDPV3MomeFhRJW_PR-17" value="" style="rounded=0;whiteSpace=wrap;html=1;" vertex="1" parent="QejyDPV3MomeFhRJW_PR-1">
          <mxGeometry x="350" y="270" width="130" height="100" as="geometry"/>
        </mxCell>
        <mxCell id="QejyDPV3MomeFhRJW_PR-19" value="Mountain Biking" style="text;html=1;strokeColor=none;fillColor=none;align=left;verticalAlign=middle;whiteSpace=wrap;rounded=0;fontStyle=1" vertex="1" parent="QejyDPV3MomeFhRJW_PR-1">
          <mxGeometry x="360" y="273" width="100" height="20" as="geometry"/>
        </mxCell>
        <mxCell id="QejyDPV3MomeFhRJW_PR-20" value="&lt;span style=&quot;font-weight: normal&quot;&gt;@biking12222&lt;/span&gt;" style="text;html=1;strokeColor=none;fillColor=none;align=left;verticalAlign=middle;whiteSpace=wrap;rounded=0;fontStyle=3" vertex="1" parent="QejyDPV3MomeFhRJW_PR-1">
          <mxGeometry x="360" y="288" width="100" height="20" as="geometry"/>
        </mxCell>
        <mxCell id="QejyDPV3MomeFhRJW_PR-21" value="Action shot of me riding my bike&amp;nbsp;" style="text;html=1;strokeColor=none;fillColor=none;align=left;verticalAlign=middle;whiteSpace=wrap;rounded=0;" vertex="1" parent="QejyDPV3MomeFhRJW_PR-1">
          <mxGeometry x="360" y="314" width="110" height="40" as="geometry"/>
        </mxCell>
        <mxCell id="QejyDPV3MomeFhRJW_PR-22" value="" style="shape=image;html=1;verticalAlign=top;verticalLabelPosition=bottom;labelBackgroundColor=#ffffff;imageAspect=0;aspect=fixed;image=https://cdn4.iconfinder.com/data/icons/adventure-and-camping-colored-lineal-style/512/mountainadventurenature-128.png;align=left;" vertex="1" parent="QejyDPV3MomeFhRJW_PR-1">
          <mxGeometry x="216" y="161" width="78" height="78" as="geometry"/>
        </mxCell>
        <mxCell id="QejyDPV3MomeFhRJW_PR-23" value="" style="shape=image;html=1;verticalAlign=top;verticalLabelPosition=bottom;labelBackgroundColor=#ffffff;imageAspect=0;aspect=fixed;image=https://cdn0.iconfinder.com/data/icons/sports-android-l-lollipop-icon-pack/24/mountain_biking-128.png;align=left;" vertex="1" parent="QejyDPV3MomeFhRJW_PR-1">
          <mxGeometry x="381" y="166" width="68" height="68" as="geometry"/>
        </mxCell>
      </root>
    </mxGraphModel>
  </diagram>
  <diagram id="fMyZ622aMhCWFe4bYVOj" name="04 - strategy">
    <mxGraphModel dx="662" dy="359" grid="1" gridSize="10" guides="1" tooltips="1" connect="1" arrows="1" fold="1" page="1" pageScale="1" pageWidth="1920" pageHeight="1200" math="0" shadow="0">
      <root>
        <mxCell id="hbYga4Ch1VQ8M7I2eMoC-0"/>
        <mxCell id="hbYga4Ch1VQ8M7I2eMoC-1" parent="hbYga4Ch1VQ8M7I2eMoC-0"/>
        <mxCell id="hbYga4Ch1VQ8M7I2eMoC-2" value="Create all three cards with static HTML" style="rounded=0;whiteSpace=wrap;html=1;shadow=0;fontSize=15;align=center;" vertex="1" parent="hbYga4Ch1VQ8M7I2eMoC-1">
          <mxGeometry x="470" y="180" width="350" height="40" as="geometry"/>
        </mxCell>
        <mxCell id="hbYga4Ch1VQ8M7I2eMoC-3" value="Strategy" style="text;html=1;strokeColor=none;fillColor=none;align=center;verticalAlign=middle;whiteSpace=wrap;rounded=0;shadow=0;fontSize=24;fontStyle=1" vertex="1" parent="hbYga4Ch1VQ8M7I2eMoC-1">
          <mxGeometry x="625" y="150" width="40" height="20" as="geometry"/>
        </mxCell>
        <mxCell id="hbYga4Ch1VQ8M7I2eMoC-4" value="" style="endArrow=classic;html=1;fontSize=24;" edge="1" parent="hbYga4Ch1VQ8M7I2eMoC-1">
          <mxGeometry width="50" height="50" relative="1" as="geometry">
            <mxPoint x="460" y="180" as="sourcePoint"/>
            <mxPoint x="460" y="420" as="targetPoint"/>
          </mxGeometry>
        </mxCell>
        <mxCell id="hbYga4Ch1VQ8M7I2eMoC-5" value="Create all three cards with static HTML" style="rounded=0;whiteSpace=wrap;html=1;shadow=0;fontSize=15;align=center;" vertex="1" parent="hbYga4Ch1VQ8M7I2eMoC-1">
          <mxGeometry x="470" y="230" width="350" height="40" as="geometry"/>
        </mxCell>
      </root>
    </mxGraphModel>
  </diagram>
  <diagram id="6iK-UfH9HfuKvJJmnFl3" name="02 - strategy">
    <mxGraphModel dx="747" dy="359" grid="1" gridSize="10" guides="1" tooltips="1" connect="1" arrows="1" fold="1" page="1" pageScale="1" pageWidth="1920" pageHeight="1200" math="0" shadow="0">
      <root>
        <mxCell id="6lUW8sm6FCLK8UPgMSe--0"/>
        <mxCell id="6lUW8sm6FCLK8UPgMSe--1" parent="6lUW8sm6FCLK8UPgMSe--0"/>
        <mxCell id="tc3jA7kn4qYYms2PmDJk-0" value="" style="rounded=0;whiteSpace=wrap;html=1;" vertex="1" parent="6lUW8sm6FCLK8UPgMSe--1">
          <mxGeometry x="580" y="230" width="130" height="140" as="geometry"/>
        </mxCell>
        <mxCell id="tc3jA7kn4qYYms2PmDJk-1" value="" style="rounded=0;whiteSpace=wrap;html=1;" vertex="1" parent="6lUW8sm6FCLK8UPgMSe--1">
          <mxGeometry x="580" y="370" width="130" height="100" as="geometry"/>
        </mxCell>
        <mxCell id="tc3jA7kn4qYYms2PmDJk-2" value="" style="shape=image;html=1;verticalAlign=top;verticalLabelPosition=bottom;labelBackgroundColor=#ffffff;imageAspect=0;aspect=fixed;image=https://cdn4.iconfinder.com/data/icons/tree-22/72/30-128.png" vertex="1" parent="6lUW8sm6FCLK8UPgMSe--1">
          <mxGeometry x="603" y="258" width="84" height="84" as="geometry"/>
        </mxCell>
        <mxCell id="tc3jA7kn4qYYms2PmDJk-3" value="Neat Tree" style="text;html=1;strokeColor=none;fillColor=none;align=left;verticalAlign=middle;whiteSpace=wrap;rounded=0;fontStyle=1" vertex="1" parent="6lUW8sm6FCLK8UPgMSe--1">
          <mxGeometry x="590" y="373" width="60" height="20" as="geometry"/>
        </mxCell>
        <mxCell id="tc3jA7kn4qYYms2PmDJk-4" value="&lt;span style=&quot;font-weight: normal&quot;&gt;@nature&lt;/span&gt;" style="text;html=1;strokeColor=none;fillColor=none;align=left;verticalAlign=middle;whiteSpace=wrap;rounded=0;fontStyle=3" vertex="1" parent="6lUW8sm6FCLK8UPgMSe--1">
          <mxGeometry x="590" y="388" width="50" height="20" as="geometry"/>
        </mxCell>
        <mxCell id="tc3jA7kn4qYYms2PmDJk-5" value="Saw this awesome tree during my hike today" style="text;html=1;strokeColor=none;fillColor=none;align=left;verticalAlign=middle;whiteSpace=wrap;rounded=0;" vertex="1" parent="6lUW8sm6FCLK8UPgMSe--1">
          <mxGeometry x="590" y="414" width="110" height="40" as="geometry"/>
        </mxCell>
        <mxCell id="tc3jA7kn4qYYms2PmDJk-6" value="Data Required For Each Card" style="text;html=1;strokeColor=none;fillColor=none;align=center;verticalAlign=middle;whiteSpace=wrap;rounded=0;shadow=0;fontStyle=1;fontSize=16;" vertex="1" parent="6lUW8sm6FCLK8UPgMSe--1">
          <mxGeometry x="750" y="220" width="160" height="20" as="geometry"/>
        </mxCell>
        <mxCell id="tc3jA7kn4qYYms2PmDJk-8" style="edgeStyle=orthogonalEdgeStyle;rounded=0;orthogonalLoop=1;jettySize=auto;html=1;exitX=0;exitY=0.5;exitDx=0;exitDy=0;fontSize=13;" edge="1" parent="6lUW8sm6FCLK8UPgMSe--1" source="tc3jA7kn4qYYms2PmDJk-7" target="tc3jA7kn4qYYms2PmDJk-2">
          <mxGeometry relative="1" as="geometry"/>
        </mxCell>
        <mxCell id="tc3jA7kn4qYYms2PmDJk-7" value="URL for some image" style="rounded=0;whiteSpace=wrap;html=1;shadow=0;fontSize=11;align=center;fillColor=#fff2cc;strokeColor=#d6b656;" vertex="1" parent="6lUW8sm6FCLK8UPgMSe--1">
          <mxGeometry x="760" y="270" width="150" height="30" as="geometry"/>
        </mxCell>
        <mxCell id="tc3jA7kn4qYYms2PmDJk-11" style="edgeStyle=orthogonalEdgeStyle;rounded=0;orthogonalLoop=1;jettySize=auto;html=1;exitX=0;exitY=0.5;exitDx=0;exitDy=0;entryX=1;entryY=0.5;entryDx=0;entryDy=0;fontSize=13;" edge="1" parent="6lUW8sm6FCLK8UPgMSe--1" source="tc3jA7kn4qYYms2PmDJk-9" target="tc3jA7kn4qYYms2PmDJk-3">
          <mxGeometry relative="1" as="geometry">
            <Array as="points">
              <mxPoint x="730" y="358"/>
              <mxPoint x="730" y="383"/>
            </Array>
          </mxGeometry>
        </mxCell>
        <mxCell id="tc3jA7kn4qYYms2PmDJk-9" value="Title of the post" style="rounded=0;whiteSpace=wrap;html=1;shadow=0;fontSize=11;align=center;fillColor=#fff2cc;strokeColor=#d6b656;" vertex="1" parent="6lUW8sm6FCLK8UPgMSe--1">
          <mxGeometry x="760" y="343" width="150" height="30" as="geometry"/>
        </mxCell>
        <mxCell id="tc3jA7kn4qYYms2PmDJk-13" style="edgeStyle=orthogonalEdgeStyle;rounded=0;orthogonalLoop=1;jettySize=auto;html=1;exitX=0;exitY=0.5;exitDx=0;exitDy=0;fontSize=13;" edge="1" parent="6lUW8sm6FCLK8UPgMSe--1" source="tc3jA7kn4qYYms2PmDJk-12" target="tc3jA7kn4qYYms2PmDJk-4">
          <mxGeometry relative="1" as="geometry">
            <Array as="points">
              <mxPoint x="720" y="393"/>
              <mxPoint x="720" y="398"/>
            </Array>
          </mxGeometry>
        </mxCell>
        <mxCell id="tc3jA7kn4qYYms2PmDJk-12" value="Username of person who created the post" style="rounded=0;whiteSpace=wrap;html=1;shadow=0;fontSize=11;align=center;fillColor=#fff2cc;strokeColor=#d6b656;" vertex="1" parent="6lUW8sm6FCLK8UPgMSe--1">
          <mxGeometry x="760" y="378" width="150" height="30" as="geometry"/>
        </mxCell>
        <mxCell id="tc3jA7kn4qYYms2PmDJk-15" style="edgeStyle=orthogonalEdgeStyle;rounded=0;orthogonalLoop=1;jettySize=auto;html=1;exitX=0;exitY=0.5;exitDx=0;exitDy=0;fontSize=11;" edge="1" parent="6lUW8sm6FCLK8UPgMSe--1" source="tc3jA7kn4qYYms2PmDJk-14" target="tc3jA7kn4qYYms2PmDJk-5">
          <mxGeometry relative="1" as="geometry"/>
        </mxCell>
        <mxCell id="tc3jA7kn4qYYms2PmDJk-14" value="Content of the post itself" style="rounded=0;whiteSpace=wrap;html=1;shadow=0;fontSize=11;align=center;fillColor=#fff2cc;strokeColor=#d6b656;" vertex="1" parent="6lUW8sm6FCLK8UPgMSe--1">
          <mxGeometry x="760" y="419" width="150" height="30" as="geometry"/>
        </mxCell>
      </root>
    </mxGraphModel>
  </diagram>
  <diagram name="03 - data" id="3tX8lin7frBJBiZ_HfcI">
    <mxGraphModel dx="747" dy="359" grid="1" gridSize="10" guides="1" tooltips="1" connect="1" arrows="1" fold="1" page="1" pageScale="1" pageWidth="1920" pageHeight="1200" math="0" shadow="0">
      <root>
        <mxCell id="irJxC72UDlnh7sxN9Xpk-0"/>
        <mxCell id="irJxC72UDlnh7sxN9Xpk-1" parent="irJxC72UDlnh7sxN9Xpk-0"/>
        <mxCell id="irJxC72UDlnh7sxN9Xpk-2" value="" style="rounded=0;whiteSpace=wrap;html=1;" vertex="1" parent="irJxC72UDlnh7sxN9Xpk-1">
          <mxGeometry x="580" y="230" width="130" height="140" as="geometry"/>
        </mxCell>
        <mxCell id="irJxC72UDlnh7sxN9Xpk-3" value="" style="rounded=0;whiteSpace=wrap;html=1;" vertex="1" parent="irJxC72UDlnh7sxN9Xpk-1">
          <mxGeometry x="580" y="370" width="130" height="100" as="geometry"/>
        </mxCell>
        <mxCell id="irJxC72UDlnh7sxN9Xpk-4" value="" style="shape=image;html=1;verticalAlign=top;verticalLabelPosition=bottom;labelBackgroundColor=#ffffff;imageAspect=0;aspect=fixed;image=https://cdn4.iconfinder.com/data/icons/tree-22/72/30-128.png" vertex="1" parent="irJxC72UDlnh7sxN9Xpk-1">
          <mxGeometry x="603" y="258" width="84" height="84" as="geometry"/>
        </mxCell>
        <mxCell id="irJxC72UDlnh7sxN9Xpk-5" value="Neat Tree" style="text;html=1;strokeColor=none;fillColor=none;align=left;verticalAlign=middle;whiteSpace=wrap;rounded=0;fontStyle=1" vertex="1" parent="irJxC72UDlnh7sxN9Xpk-1">
          <mxGeometry x="590" y="373" width="60" height="20" as="geometry"/>
        </mxCell>
        <mxCell id="irJxC72UDlnh7sxN9Xpk-6" value="&lt;span style=&quot;font-weight: normal&quot;&gt;@nature&lt;/span&gt;" style="text;html=1;strokeColor=none;fillColor=none;align=left;verticalAlign=middle;whiteSpace=wrap;rounded=0;fontStyle=3" vertex="1" parent="irJxC72UDlnh7sxN9Xpk-1">
          <mxGeometry x="590" y="388" width="50" height="20" as="geometry"/>
        </mxCell>
        <mxCell id="irJxC72UDlnh7sxN9Xpk-7" value="Saw this awesome tree during my hike today" style="text;html=1;strokeColor=none;fillColor=none;align=left;verticalAlign=middle;whiteSpace=wrap;rounded=0;" vertex="1" parent="irJxC72UDlnh7sxN9Xpk-1">
          <mxGeometry x="590" y="414" width="110" height="40" as="geometry"/>
        </mxCell>
        <mxCell id="irJxC72UDlnh7sxN9Xpk-8" value="Data Required For Each Card" style="text;html=1;strokeColor=none;fillColor=none;align=center;verticalAlign=middle;whiteSpace=wrap;rounded=0;shadow=0;fontStyle=1;fontSize=16;" vertex="1" parent="irJxC72UDlnh7sxN9Xpk-1">
          <mxGeometry x="755" y="220" width="160" height="20" as="geometry"/>
        </mxCell>
        <mxCell id="irJxC72UDlnh7sxN9Xpk-9" style="edgeStyle=orthogonalEdgeStyle;rounded=0;orthogonalLoop=1;jettySize=auto;html=1;exitX=0;exitY=0.5;exitDx=0;exitDy=0;fontSize=13;" edge="1" parent="irJxC72UDlnh7sxN9Xpk-1" source="irJxC72UDlnh7sxN9Xpk-10" target="irJxC72UDlnh7sxN9Xpk-4">
          <mxGeometry relative="1" as="geometry"/>
        </mxCell>
        <mxCell id="irJxC72UDlnh7sxN9Xpk-17" style="edgeStyle=orthogonalEdgeStyle;rounded=0;orthogonalLoop=1;jettySize=auto;html=1;exitX=1;exitY=0.5;exitDx=0;exitDy=0;fontSize=11;" edge="1" parent="irJxC72UDlnh7sxN9Xpk-1" source="irJxC72UDlnh7sxN9Xpk-10">
          <mxGeometry relative="1" as="geometry">
            <mxPoint x="950" y="285" as="targetPoint"/>
          </mxGeometry>
        </mxCell>
        <mxCell id="irJxC72UDlnh7sxN9Xpk-10" value="URL for some image" style="rounded=0;whiteSpace=wrap;html=1;shadow=0;fontSize=11;align=center;fillColor=#fff2cc;strokeColor=#d6b656;" vertex="1" parent="irJxC72UDlnh7sxN9Xpk-1">
          <mxGeometry x="760" y="270" width="150" height="30" as="geometry"/>
        </mxCell>
        <mxCell id="irJxC72UDlnh7sxN9Xpk-11" style="edgeStyle=orthogonalEdgeStyle;rounded=0;orthogonalLoop=1;jettySize=auto;html=1;exitX=0;exitY=0.5;exitDx=0;exitDy=0;entryX=1;entryY=0.5;entryDx=0;entryDy=0;fontSize=13;" edge="1" parent="irJxC72UDlnh7sxN9Xpk-1" source="irJxC72UDlnh7sxN9Xpk-12" target="irJxC72UDlnh7sxN9Xpk-5">
          <mxGeometry relative="1" as="geometry">
            <Array as="points">
              <mxPoint x="730" y="358"/>
              <mxPoint x="730" y="383"/>
            </Array>
          </mxGeometry>
        </mxCell>
        <mxCell id="irJxC72UDlnh7sxN9Xpk-20" style="edgeStyle=orthogonalEdgeStyle;rounded=0;orthogonalLoop=1;jettySize=auto;html=1;exitX=1;exitY=0.5;exitDx=0;exitDy=0;entryX=0;entryY=0.5;entryDx=0;entryDy=0;fontSize=11;" edge="1" parent="irJxC72UDlnh7sxN9Xpk-1" source="irJxC72UDlnh7sxN9Xpk-12" target="irJxC72UDlnh7sxN9Xpk-19">
          <mxGeometry relative="1" as="geometry"/>
        </mxCell>
        <mxCell id="irJxC72UDlnh7sxN9Xpk-12" value="Title of the post" style="rounded=0;whiteSpace=wrap;html=1;shadow=0;fontSize=11;align=center;fillColor=#fff2cc;strokeColor=#d6b656;" vertex="1" parent="irJxC72UDlnh7sxN9Xpk-1">
          <mxGeometry x="760" y="343" width="150" height="30" as="geometry"/>
        </mxCell>
        <mxCell id="irJxC72UDlnh7sxN9Xpk-13" style="edgeStyle=orthogonalEdgeStyle;rounded=0;orthogonalLoop=1;jettySize=auto;html=1;exitX=0;exitY=0.5;exitDx=0;exitDy=0;fontSize=13;" edge="1" parent="irJxC72UDlnh7sxN9Xpk-1" source="irJxC72UDlnh7sxN9Xpk-14" target="irJxC72UDlnh7sxN9Xpk-6">
          <mxGeometry relative="1" as="geometry">
            <Array as="points">
              <mxPoint x="720" y="393"/>
              <mxPoint x="720" y="398"/>
            </Array>
          </mxGeometry>
        </mxCell>
        <mxCell id="irJxC72UDlnh7sxN9Xpk-22" style="edgeStyle=orthogonalEdgeStyle;rounded=0;orthogonalLoop=1;jettySize=auto;html=1;exitX=1;exitY=0.5;exitDx=0;exitDy=0;fontSize=11;" edge="1" parent="irJxC72UDlnh7sxN9Xpk-1" source="irJxC72UDlnh7sxN9Xpk-14" target="irJxC72UDlnh7sxN9Xpk-21">
          <mxGeometry relative="1" as="geometry"/>
        </mxCell>
        <mxCell id="irJxC72UDlnh7sxN9Xpk-14" value="Username of person who created the post" style="rounded=0;whiteSpace=wrap;html=1;shadow=0;fontSize=11;align=center;fillColor=#fff2cc;strokeColor=#d6b656;" vertex="1" parent="irJxC72UDlnh7sxN9Xpk-1">
          <mxGeometry x="760" y="378" width="150" height="30" as="geometry"/>
        </mxCell>
        <mxCell id="irJxC72UDlnh7sxN9Xpk-15" style="edgeStyle=orthogonalEdgeStyle;rounded=0;orthogonalLoop=1;jettySize=auto;html=1;exitX=0;exitY=0.5;exitDx=0;exitDy=0;fontSize=11;" edge="1" parent="irJxC72UDlnh7sxN9Xpk-1" source="irJxC72UDlnh7sxN9Xpk-16" target="irJxC72UDlnh7sxN9Xpk-7">
          <mxGeometry relative="1" as="geometry"/>
        </mxCell>
        <mxCell id="irJxC72UDlnh7sxN9Xpk-24" style="edgeStyle=orthogonalEdgeStyle;rounded=0;orthogonalLoop=1;jettySize=auto;html=1;exitX=1;exitY=0.5;exitDx=0;exitDy=0;fontSize=11;" edge="1" parent="irJxC72UDlnh7sxN9Xpk-1" source="irJxC72UDlnh7sxN9Xpk-16" target="irJxC72UDlnh7sxN9Xpk-23">
          <mxGeometry relative="1" as="geometry"/>
        </mxCell>
        <mxCell id="irJxC72UDlnh7sxN9Xpk-16" value="Content of the post itself" style="rounded=0;whiteSpace=wrap;html=1;shadow=0;fontSize=11;align=center;fillColor=#fff2cc;strokeColor=#d6b656;" vertex="1" parent="irJxC72UDlnh7sxN9Xpk-1">
          <mxGeometry x="760" y="419" width="150" height="30" as="geometry"/>
        </mxCell>
        <mxCell id="irJxC72UDlnh7sxN9Xpk-18" value="imageUrl" style="rounded=0;whiteSpace=wrap;html=1;shadow=0;fontSize=11;align=center;fillColor=#f8cecc;strokeColor=#b85450;" vertex="1" parent="irJxC72UDlnh7sxN9Xpk-1">
          <mxGeometry x="950" y="270" width="110" height="30" as="geometry"/>
        </mxCell>
        <mxCell id="irJxC72UDlnh7sxN9Xpk-19" value="title" style="rounded=0;whiteSpace=wrap;html=1;shadow=0;fontSize=11;align=center;fillColor=#f8cecc;strokeColor=#b85450;" vertex="1" parent="irJxC72UDlnh7sxN9Xpk-1">
          <mxGeometry x="950" y="343" width="110" height="30" as="geometry"/>
        </mxCell>
        <mxCell id="irJxC72UDlnh7sxN9Xpk-21" value="username" style="rounded=0;whiteSpace=wrap;html=1;shadow=0;fontSize=11;align=center;fillColor=#f8cecc;strokeColor=#b85450;" vertex="1" parent="irJxC72UDlnh7sxN9Xpk-1">
          <mxGeometry x="950" y="378" width="110" height="30" as="geometry"/>
        </mxCell>
        <mxCell id="irJxC72UDlnh7sxN9Xpk-23" value="content" style="rounded=0;whiteSpace=wrap;html=1;shadow=0;fontSize=11;align=center;fillColor=#f8cecc;strokeColor=#b85450;" vertex="1" parent="irJxC72UDlnh7sxN9Xpk-1">
          <mxGeometry x="950" y="419" width="110" height="30" as="geometry"/>
        </mxCell>
      </root>
    </mxGraphModel>
  </diagram>
</mxfile>
